<svg xmlns="http://www.w3.org/2000/svg" xmlns:xlink="http://www.w3.org/1999/xlink" width="1080" zoomAndPan="magnify" viewBox="0 0 810 809.999993" height="1080" preserveAspectRatio="xMidYMid meet" version="1.0"><defs><g/><clipPath id="e06bfd57ed"><path d="M 121.765625 181.960938 L 667.015625 181.960938 L 667.015625 628.210938 L 121.765625 628.210938 Z M 121.765625 181.960938 " clip-rule="nonzero"/></clipPath></defs><g clip-path="url(#e06bfd57ed)"><path fill="#f8f7f4" d="M 220.902344 434.339844 L 220.902344 533.507812 L 394.390625 628.210938 L 567.878906 533.507812 L 567.878906 434.339844 L 394.390625 529.042969 Z M 394.390625 181.960938 L 121.765625 330.710938 L 394.390625 479.460938 L 617.445312 357.734375 L 617.445312 529.042969 L 667.011719 529.042969 L 667.011719 330.710938 Z M 394.390625 181.960938 " fill-opacity="1" fill-rule="nonzero"/></g><g fill="#f8f7f4" fill-opacity="1"><g transform="translate(184.150505, 589.924681)"><g><path d="M 35.9375 -26.476562 L 22.757812 -33.800781 L 3.042969 1.691406 L 16.222656 9.011719 L 22.984375 -3.15625 L 31.09375 1.351562 L 24.335938 13.519531 L 37.519531 20.84375 L 57.234375 -14.648438 L 44.050781 -21.96875 L 37.292969 -9.800781 L 29.179688 -14.308594 Z M 35.9375 -26.476562 "/></g></g></g><g fill="#f8f7f4" fill-opacity="1"><g transform="translate(224.709269, 612.456012)"><g><path d="M 23.265625 -3.664062 L 36.445312 3.660156 L 42.078125 -6.480469 L 28.898438 -13.800781 L 30.304688 -16.335938 L 44.503906 -8.449219 L 50.136719 -18.589844 L 22.757812 -33.800781 L 3.042969 1.691406 L 31.433594 17.460938 L 37.066406 7.320312 L 21.855469 -1.128906 Z M 23.265625 -3.664062 "/></g></g></g><g fill="#f8f7f4" fill-opacity="1"><g transform="translate(257.663267, 630.76272)"><g><path d="M 38.023438 21.125 L 37.011719 2.648438 C 37.011719 2.648438 42.980469 2.648438 47.066406 -4.703125 C 51.148438 -12.054688 48.894531 -19.941406 37.742188 -26.140625 C 30.136719 -30.363281 22.757812 -33.800781 22.757812 -33.800781 L 3.042969 1.691406 L 16.222656 9.011719 L 22.703125 -2.648438 L 23.207031 -2.367188 L 22.816406 12.675781 Z M 27.769531 -11.773438 L 30.871094 -17.351562 L 32.390625 -16.507812 C 34.164062 -15.519531 34.726562 -13.546875 33.882812 -12.027344 C 33.039062 -10.507812 31.066406 -9.945312 29.292969 -10.929688 Z M 27.769531 -11.773438 "/></g></g></g><g fill="#f8f7f4" fill-opacity="1"><g transform="translate(294.673136, 651.322558)"><g><path d="M 28.785156 0.730469 C 25.238281 -1.238281 24.109375 -5.183594 26.082031 -8.730469 C 28.054688 -12.28125 31.996094 -13.40625 35.546875 -11.4375 C 39.09375 -9.464844 40.585938 -4.988281 40.585938 -4.988281 L 52.023438 -11.238281 C 52.023438 -11.238281 50.558594 -19.351562 40.925781 -24.703125 C 30.277344 -30.617188 17.660156 -27.011719 11.886719 -16.617188 C 6.113281 -6.226562 9.71875 6.394531 20.363281 12.308594 C 30.503906 17.941406 38.445312 14.390625 38.445312 14.390625 L 45.347656 1.96875 L 33.179688 -4.789062 L 29.800781 1.292969 C 29.800781 1.292969 29.292969 1.011719 28.785156 0.730469 Z M 28.785156 0.730469 "/></g></g></g><g fill="#f8f7f4" fill-opacity="1"><g transform="translate(332.189992, 672.164039)"><g><path d="M 37.234375 -2.535156 C 35.265625 1.011719 31.320312 2.140625 28.277344 0.449219 C 25.238281 -1.238281 24.109375 -5.183594 26.082031 -8.730469 C 28.054688 -12.28125 31.996094 -13.40625 35.039062 -11.71875 C 38.082031 -10.027344 39.207031 -6.085938 37.234375 -2.535156 Z M 51.429688 5.351562 C 57.207031 -5.042969 53.597656 -17.660156 41.9375 -24.140625 C 30.277344 -30.617188 17.660156 -27.011719 11.886719 -16.617188 C 6.113281 -6.226562 9.71875 6.394531 21.378906 12.871094 C 33.039062 19.347656 45.65625 15.742188 51.429688 5.351562 Z M 51.429688 5.351562 "/></g></g></g><g fill="#f8f7f4" fill-opacity="1"><g transform="translate(452.578973, 684.340906)"><g><path d="M -19.921875 -41.832031 L 3.414062 -2 L 18.207031 -10.667969 L 11.539062 -22.046875 L 23.488281 -29.046875 L 16.824219 -40.429688 L 4.875 -33.429688 L 2.207031 -37.980469 L 17 -46.648438 L 9.667969 -59.167969 Z M -19.921875 -41.832031 "/></g></g></g><g fill="#f8f7f4" fill-opacity="1"><g transform="translate(486.716349, 664.34052)"><g><path d="M 8.242188 -58.332031 L -11.101562 -47 L 0.570312 -0.332031 L 17.070312 -10 L 14.875 -16.359375 L 22.273438 -20.691406 L 26.742188 -15.667969 L 43.246094 -25.335938 C 43.246094 -25.335938 8.433594 -58.136719 8.242188 -58.332031 Z M 11.246094 -26.460938 L 7.238281 -37.871094 L 15.230469 -28.796875 Z M 11.246094 -26.460938 "/></g></g></g><g fill="#f8f7f4" fill-opacity="1"><g transform="translate(530.525982, 638.673357)"><g><path d="M -9.390625 -21.25 C -2.558594 -9.585938 11.878906 -5.8125 23.828125 -12.816406 C 34.640625 -19.148438 36.09375 -28.40625 36.09375 -28.40625 L 22.933594 -35.21875 C 22.933594 -35.21875 21.351562 -30.089844 17.367188 -27.753906 C 13.386719 -25.421875 8.875 -26.601562 6.539062 -30.582031 C 4.207031 -34.566406 5.386719 -39.078125 9.367188 -41.410156 C 13.351562 -43.746094 18.597656 -42.617188 18.597656 -42.617188 L 19.09375 -57.425781 C 19.09375 -57.425781 10.304688 -60.6875 -0.507812 -54.351562 C -12.457031 -47.351562 -16.226562 -32.914062 -9.390625 -21.25 Z M -9.390625 -21.25 "/></g></g></g></svg>