<svg xmlns="http://www.w3.org/2000/svg" xmlns:xlink="http://www.w3.org/1999/xlink" width="1080" zoomAndPan="magnify" viewBox="0 0 810 809.999993" height="1080" preserveAspectRatio="xMidYMid meet" version="1.0"><defs><g/><clipPath id="0f5f80ef08"><path d="M 30.199219 14.726562 L 779.449219 14.726562 L 779.449219 628.226562 L 30.199219 628.226562 Z M 30.199219 14.726562 " clip-rule="nonzero"/></clipPath></defs><g clip-path="url(#0f5f80ef08)"><path fill="#f8f7f4" d="M 166.429688 361.695312 L 166.429688 498.027344 L 404.824219 628.226562 L 643.21875 498.027344 L 643.21875 361.695312 L 404.824219 491.894531 Z M 404.824219 14.726562 L 30.203125 219.226562 L 404.824219 423.726562 L 711.328125 256.378906 L 711.328125 491.894531 L 779.441406 491.894531 L 779.441406 219.226562 Z M 404.824219 14.726562 " fill-opacity="1" fill-rule="nonzero"/></g><g fill="#f8f7f4" fill-opacity="1"><g transform="translate(134.170561, 558.680526)"><g><path d="M 41.515625 -30.585938 L 26.289062 -39.042969 L 3.515625 1.953125 L 18.742188 10.410156 L 26.550781 -3.644531 L 35.921875 1.5625 L 28.113281 15.617188 L 43.339844 24.078125 L 66.113281 -16.921875 L 50.886719 -25.378906 L 43.078125 -11.324219 L 33.707031 -16.53125 Z M 41.515625 -30.585938 "/></g></g></g><g fill="#f8f7f4" fill-opacity="1"><g transform="translate(181.023267, 584.708288)"><g><path d="M 26.875 -4.230469 L 42.101562 4.230469 L 48.609375 -7.484375 L 33.382812 -15.945312 L 35.007812 -18.871094 L 51.40625 -9.761719 L 57.914062 -21.476562 L 26.289062 -39.042969 L 3.515625 1.953125 L 36.3125 20.171875 L 42.820312 8.457031 L 25.25 -1.300781 Z M 26.875 -4.230469 "/></g></g></g><g fill="#f8f7f4" fill-opacity="1"><g transform="translate(219.091087, 605.855841)"><g><path d="M 43.925781 24.402344 L 42.753906 3.058594 C 42.753906 3.058594 49.652344 3.058594 54.367188 -5.433594 C 59.085938 -13.925781 56.484375 -23.039062 43.597656 -30.195312 C 34.8125 -35.074219 26.289062 -39.042969 26.289062 -39.042969 L 3.515625 1.953125 L 18.742188 10.410156 L 26.226562 -3.058594 L 26.808594 -2.734375 L 26.355469 14.640625 Z M 32.082031 -13.601562 L 35.660156 -20.042969 L 37.417969 -19.066406 C 39.464844 -17.929688 40.117188 -15.652344 39.140625 -13.894531 C 38.164062 -12.136719 35.886719 -11.488281 33.839844 -12.625 Z M 32.082031 -13.601562 "/></g></g></g><g fill="#f8f7f4" fill-opacity="1"><g transform="translate(261.844175, 629.60617)"><g><path d="M 33.253906 0.84375 C 29.152344 -1.433594 27.851562 -5.988281 30.128906 -10.085938 C 32.40625 -14.1875 36.960938 -15.488281 41.0625 -13.210938 C 45.160156 -10.933594 46.886719 -5.761719 46.886719 -5.761719 L 60.09375 -12.984375 C 60.09375 -12.984375 58.402344 -22.355469 47.273438 -28.535156 C 34.976562 -35.367188 20.398438 -31.203125 13.730469 -19.195312 C 7.058594 -7.191406 11.226562 7.386719 23.523438 14.21875 C 35.238281 20.726562 44.414062 16.625 44.414062 16.625 L 52.382812 2.277344 L 38.328125 -5.53125 L 34.425781 1.496094 C 34.425781 1.496094 33.839844 1.171875 33.253906 0.84375 Z M 33.253906 0.84375 "/></g></g></g><g fill="#f8f7f4" fill-opacity="1"><g transform="translate(305.182911, 653.68184)"><g><path d="M 43.011719 -2.929688 C 40.734375 1.171875 36.179688 2.472656 32.667969 0.519531 C 29.152344 -1.433594 27.851562 -5.988281 30.128906 -10.085938 C 32.40625 -14.1875 36.960938 -15.488281 40.476562 -13.535156 C 43.988281 -11.585938 45.292969 -7.027344 43.011719 -2.929688 Z M 59.414062 6.179688 C 66.082031 -5.824219 61.917969 -20.402344 48.445312 -27.886719 C 34.976562 -35.367188 20.398438 -31.203125 13.730469 -19.195312 C 7.058594 -7.191406 11.226562 7.386719 24.695312 14.867188 C 38.167969 22.351562 52.742188 18.1875 59.414062 6.179688 Z M 59.414062 6.179688 "/></g></g></g><g fill="#f8f7f4" fill-opacity="1"><g transform="translate(467.706532, 667.783617)"><g><path d="M -17.035156 -38.519531 L 3.152344 -1.730469 L 16.816406 -9.230469 L 11.050781 -19.738281 L 22.085938 -25.796875 L 16.316406 -36.308594 L 5.28125 -30.25 L 2.972656 -34.453125 L 16.636719 -41.953125 L 10.292969 -53.515625 Z M -17.035156 -38.519531 "/></g></g></g><g fill="#f8f7f4" fill-opacity="1"><g transform="translate(499.235913, 650.481291)"><g><path d="M 8.980469 -52.792969 L -8.890625 -42.988281 L 0.527344 -0.289062 L 15.765625 -8.652344 L 13.933594 -14.484375 L 20.765625 -18.234375 L 24.699219 -13.554688 L 39.941406 -21.917969 C 39.941406 -21.917969 9.148438 -52.613281 8.980469 -52.792969 Z M 10.894531 -23.757812 L 7.542969 -34.226562 L 14.574219 -25.777344 Z M 10.894531 -23.757812 "/></g></g></g><g fill="#f8f7f4" fill-opacity="1"><g transform="translate(539.698627, 628.276633)"><g><path d="M -7.992188 -19.546875 C -2.078125 -8.773438 10.945312 -4.980469 21.980469 -11.035156 C 31.964844 -16.515625 33.523438 -24.890625 33.523438 -24.890625 L 21.738281 -31.417969 C 21.738281 -31.417969 20.167969 -26.796875 16.492188 -24.777344 C 12.8125 -22.757812 8.742188 -23.945312 6.722656 -27.621094 C 4.703125 -31.300781 5.890625 -35.371094 9.570312 -37.390625 C 13.246094 -39.410156 17.988281 -38.25 17.988281 -38.25 L 18.8125 -51.695312 C 18.8125 -51.695312 10.910156 -54.878906 0.925781 -49.402344 C -10.109375 -43.34375 -13.902344 -30.320312 -7.992188 -19.546875 Z M -7.992188 -19.546875 "/></g></g></g></svg>