<svg xmlns="http://www.w3.org/2000/svg" version="1.1" xmlns:xlink="http://www.w3.org/1999/xlink" xmlns:svgjs="http://svgjs.com/svgjs" width="1440" height="560" preserveAspectRatio="none" viewBox="0 0 1440 560"><g mask="url(&quot;#SvgjsMask1003&quot;)" fill="none"><rect width="1440" height="560" x="0" y="0" fill="rgba(0, 0, 0, 1)"></rect><path d="M 0,59 C 57.6,79 172.8,166.2 288,159 C 403.2,151.8 460.8,25.8 576,23 C 691.2,20.2 748.8,124.2 864,145 C 979.2,165.8 1036.8,115 1152,127 C 1267.2,139 1382.4,189.4 1440,205L1440 560L0 560z" fill="rgba(44, 45, 177, 1)"></path><path d="M 0,419 C 96,419.4 288,446.8 480,421 C 672,395.2 768,289.2 960,290 C 1152,290.8 1344,398 1440,425L1440 560L0 560z" fill="rgba(149, 55, 211, 1)"></path></g><defs><mask id="SvgjsMask1003"><rect width="1440" height="560" fill="#ffffff"></rect></mask></defs></svg>